<svg id="Layer_1" data-name="Layer 1" xmlns="http://www.w3.org/2000/svg" viewBox="0 0 1080 1080"><defs><style>.cls-1{fill:#2a6219;}.cls-2{fill:#fff;}</style></defs><path class="cls-1" d="M1026.29,508.34c33.57-248.77-251.37-239.21-470.92-360.92C153.51-75.35,39.28,245.49,49.12,500.19c10.64,275.47,178.64,482.75,427.41,516.32S992.72,757.11,1026.29,508.34Z"/><path class="cls-2" d="M358.61,488.14v22.22H266V390.73h90.41V413h-62.9v26H349v21.54H293.49v27.68Z"/><path class="cls-2" d="M380.66,390.73H435q19.49,0,34.44,7.43a55.66,55.66,0,0,1,23.24,20.94Q501,432.6,501,450.54T492.68,482a55.66,55.66,0,0,1-23.24,20.94q-15,7.43-34.44,7.43H380.66Zm53,96.9q18,0,28.63-10T473,450.54q0-17.09-10.69-27.08t-28.63-10H408.34v74.17Z"/><path class="cls-2" d="M614.45,488.14v22.22H521.82V390.73h90.41V413h-62.9v26h55.55v21.54H549.33v27.68Z"/><path class="cls-2" d="M745.36,510.36l-.17-71.78L710,497.71H697.51l-35-57.59v70.24h-26V390.73h22.9l44.77,74.34,44.1-74.34H771l.34,119.63Z"/><path class="cls-2" d="M273.25,693.23v22.22H180.62V595.81H271V618h-62.9v26h55.55v21.53H208.13v27.69Z"/><path class="cls-2" d="M408.6,595.81,356.82,715.45H329.48L277.87,595.81h29.9l36.4,85.45,36.92-85.45Z"/><path class="cls-2" d="M511.14,693.23v22.22H418.52V595.81h90.4V618H446v26h55.54v21.53H446v27.69Z"/><path class="cls-2" d="M642.91,595.81V715.45H620.18l-59.64-72.64v72.64H533.19V595.81h22.9l59.48,72.64V595.81Z"/><path class="cls-2" d="M696.06,618.37H657.78V595.81H762v22.56H723.74v97.08H696.06Z"/><path class="cls-2" d="M787.92,713.65q-13.24-3.84-21.28-10l9.41-20.85a63.67,63.67,0,0,0,18.29,9.06,68.54,68.54,0,0,0,21.19,3.42q11.79,0,17.43-3.5t5.64-9.32a8.91,8.91,0,0,0-3.34-7.09,25.28,25.28,0,0,0-8.54-4.53q-5.22-1.71-14.1-3.76a194.69,194.69,0,0,1-22.39-6.49,36.33,36.33,0,0,1-15-10.43Q769,643,769,631a33.31,33.31,0,0,1,5.64-18.89q5.64-8.46,17-13.41t27.77-5a92.07,92.07,0,0,1,22.39,2.74A66,66,0,0,1,861,604.36l-8.55,21q-16.59-9.4-33.16-9.4-11.61,0-17.17,3.76t-5.56,9.91q0,6.15,6.41,9.15t19.57,5.89a195.07,195.07,0,0,1,22.39,6.5,37.13,37.13,0,0,1,15,10.25q6.23,7,6.23,19a32.69,32.69,0,0,1-5.72,18.71q-5.75,8.46-17.18,13.42t-27.86,5A98,98,0,0,1,787.92,713.65Z"/></svg>